<svg xmlns="http://www.w3.org/2000/svg" xmlns:xlink="http://www.w3.org/1999/xlink" width="21" height="21.023" viewBox="0 0 21 21.023">
  <defs>
    <clipPath id="clip-path">
      <rect id="Rectangle_20" data-name="Rectangle 20" width="21" height="21.023" fill="#cacacb"/>
    </clipPath>
  </defs>
  <g id="Group_82" data-name="Group 82" transform="translate(-953 -503)">
    <g id="Group_81" data-name="Group 81" transform="translate(953 503)">
      <g id="Group_80" data-name="Group 80" transform="translate(0 0)" clip-path="url(#clip-path)">
        <path id="Path_2795" data-name="Path 2795" d="M963.316,503a10.455,10.455,0,1,0,10.594,10.313A10.455,10.455,0,0,0,963.316,503Zm-.031,16.817h-.058a1.522,1.522,0,0,1,.036-3.043h.052a1.522,1.522,0,1,1-.03,3.043Zm3.74-7.422a6.886,6.886,0,0,1-1.248,1.116l-.638.44a1.739,1.739,0,0,0-.64.781,1.624,1.624,0,0,0-.1.654v.1h-2.436l.006-.206a2.665,2.665,0,0,1,.4-1.758,10.365,10.365,0,0,1,1.818-1.463,1.909,1.909,0,0,0,.429-.44,1.547,1.547,0,0,0,.369-.9,1.765,1.765,0,0,0-.335-1.041,1.392,1.392,0,0,0-1.205-.453,1.311,1.311,0,0,0-1.217.564,2.26,2.26,0,0,0-.369,1.215v.1h-2.511l0-.108a3.82,3.82,0,0,1,1.631-3.293,4.3,4.3,0,0,1,2.364-.62,5.1,5.1,0,0,1,3.047.878,3.043,3.043,0,0,1,1.234,2.627,3.007,3.007,0,0,1-.606,1.8Zm0,0" transform="translate(-953.001 -503)" fill="#cacacb"/>
      </g>
    </g>
  </g>
</svg>
