<svg xmlns="http://www.w3.org/2000/svg" xmlns:xlink="http://www.w3.org/1999/xlink" width="16" height="20.8" viewBox="0 0 16 20.8">
  <defs>
    <clipPath id="clip-path">
      <rect id="Rectangle_18" data-name="Rectangle 18" width="16" height="20.8" fill="#cacacb"/>
    </clipPath>
  </defs>
  <g id="Group_76" data-name="Group 76" transform="translate(-840 -346)">
    <g id="Group_75" data-name="Group 75" transform="translate(840 346)">
      <g id="Group_74" data-name="Group 74" transform="translate(0 0)" clip-path="url(#clip-path)">
        <path id="Path_2793" data-name="Path 2793" d="M854.83,354.386h-.4v-1.894A6.456,6.456,0,0,0,848.171,346c-.095,0-.285,0-.379,0a6.456,6.456,0,0,0-6.254,6.491v1.894h-.4A1.314,1.314,0,0,0,840,355.825v9.5a1.32,1.32,0,0,0,1.132,1.443h13.7a1.32,1.32,0,0,0,1.132-1.443v-9.5a1.314,1.314,0,0,0-1.132-1.438Zm-5.565,6.178v2.87a.613.613,0,0,1-.6.607H847.3a.613.613,0,0,1-.6-.607v-2.87a1.738,1.738,0,0,1,1.094-2.957c.095,0,.285,0,.379,0a1.738,1.738,0,0,1,1.094,2.957Zm2.494-6.178H844.2v-1.894a3.777,3.777,0,1,1,7.554,0Zm0,0" transform="translate(-840 -346)" fill="#cacacb"/>
      </g>
    </g>
  </g>
</svg>
