<svg xmlns="http://www.w3.org/2000/svg" width="360" height="360" viewBox="0 0 360 360">
  <g id="thank_you-illustration-web" data-name="thank you-illustration-web" transform="translate(-43.362 -31.155)">
    <g id="Background" transform="translate(43.362 31.155)">
      <circle id="Ellipse_8" data-name="Ellipse 8" cx="127.279" cy="127.279" r="127.279" transform="translate(0 180) rotate(-45)" fill="#def5f5"/>
    </g>
    <g id="Objects" transform="translate(78.503 66.603)">
      <g id="Group_89" data-name="Group 89" transform="translate(201.72)">
        <path id="Path_2797" data-name="Path 2797" d="M399.7,117.968a47.7,47.7,0,0,1-18.558,37.806c-1.017.79-2.062,1.535-3.143,2.235a46.293,46.293,0,0,1-7.158,3.842,47.271,47.271,0,0,1-15.833,3.806c-1.026.064-2.053.1-3.1.1-.145,0-.3,0-.445-.009-.163.009-.318,0-.481,0-1.026-.018-2.044-.073-3.052-.154A47.79,47.79,0,1,1,399.7,117.968Z" transform="translate(-304.12 -70.18)" fill="#21bcbd"/>
        <path id="Path_2798" data-name="Path 2798" d="M374.863,125.765a4.2,4.2,0,1,1-4.2-4.2A4.2,4.2,0,0,1,374.863,125.765Z" transform="translate(-309.834 -74.889)" fill="#de9c73"/>
        <path id="Path_2799" data-name="Path 2799" d="M345.591,125.765a4.2,4.2,0,1,1-4.2-4.2A4.2,4.2,0,0,1,345.591,125.765Z" transform="translate(-307.151 -74.889)" fill="#de9c73"/>
        <g id="Group_88" data-name="Group 88" transform="translate(20.774 24.512)">
          <path id="Path_2800" data-name="Path 2800" d="M353.078,152.29v20.983c-1.026-.018-2.044-.073-3.052-.154a47.453,47.453,0,0,1-23.036-8.212V164.7a4.785,4.785,0,0,1,3.125-4.487l12.045-4.46,4.478-1.417Z" transform="translate(-326.99 -102.217)" fill="#fff5d6"/>
          <path id="Path_2801" data-name="Path 2801" d="M382.818,164.7v.836a46.293,46.293,0,0,1-7.158,3.842,47.271,47.271,0,0,1-15.833,3.806c-1.026.064-2.053.1-3.1.1V152.29l6.477,2.053,4.442,1.408,6.431,2.38,5.614,2.08A4.785,4.785,0,0,1,382.818,164.7Z" transform="translate(-329.716 -102.217)" fill="#fff5d6"/>
          <rect id="Rectangle_24" data-name="Rectangle 24" width="13.839" height="13.839" transform="translate(19.648 39.693)" fill="#de9c73"/>
          <path id="Path_2802" data-name="Path 2802" d="M354.56,99.982l-16.455,8.981,4.779,24.309c.535,2.722,2.686,5.416,5.487,7.565a6.459,6.459,0,0,0,3.932,1.307h4.814a6.58,6.58,0,0,0,4.194-1.511c2.465-2.04,4.414-4.767,4.923-7.361l5.7-29.012Z" transform="translate(-328.009 -97.423)" fill="#e8b799"/>
          <path id="Path_2803" data-name="Path 2803" d="M337.678,107.25l3.083,15.679L342.1,122a2.343,2.343,0,0,0,1-2.167l-1.784-17.5-1.794.917a3.564,3.564,0,0,0-1.874,3.86Z" transform="translate(-327.961 -97.639)" fill="#453d2c"/>
          <path id="Path_2804" data-name="Path 2804" d="M374.184,107.25,371.1,122.929,369.76,122a2.346,2.346,0,0,1-1-2.167l1.785-17.5,1.794.917a3.564,3.564,0,0,1,1.874,3.86Z" transform="translate(-330.817 -97.639)" fill="#453d2c"/>
          <path id="Rectangle_25" data-name="Rectangle 25" d="M4.373,0h30.38a0,0,0,0,1,0,0V1.426A10.123,10.123,0,0,1,24.63,11.549H0a0,0,0,0,1,0,0V4.373A4.373,4.373,0,0,1,4.373,0Z" transform="translate(12.372)" fill="#453d2c"/>
          <ellipse id="Ellipse_9" data-name="Ellipse 9" cx="2.461" cy="4.4" rx="2.461" ry="4.4" transform="translate(11.005 8.307)" fill="#453d2c"/>
          <ellipse id="Ellipse_10" data-name="Ellipse 10" cx="2.461" cy="4.4" rx="2.461" ry="4.4" transform="translate(37.203 8.307)" fill="#453d2c"/>
          <path id="Path_2805" data-name="Path 2805" d="M355.883,152.29v20.983c-.163.009-.318,0-.481,0-1.026-.018-2.044-.073-3.052-.154l2.353-14.343-1.117-1.517-1.045-1.417.082-.091,2.78-2.952.182-.191Z" transform="translate(-329.314 -102.217)" fill="#ffe987"/>
          <path id="Path_2806" data-name="Path 2806" d="M359.783,173.182c-1.026.064-2.053.1-3.1.1-.145,0-.3,0-.445-.009V152.29l.282.3.164.173,2.816,2.988.082.091-1.063,1.444-1.108,1.49Z" transform="translate(-329.671 -102.217)" fill="#ffe987"/>
          <path id="Path_2807" data-name="Path 2807" d="M343.692,155.4l4.476-6.92,7.365,3.46-4.166,7.55Z" transform="translate(-328.521 -101.868)" fill="#fff8e3"/>
          <path id="Path_2808" data-name="Path 2808" d="M367.552,155.4l-4.476-6.92-7.365,3.46,4.166,7.55Z" transform="translate(-329.622 -101.868)" fill="#fff8e3"/>
        </g>
        <path id="Path_2809" data-name="Path 2809" d="M371.464,141.116h0a1.425,1.425,0,0,1-1.132-1.668l4.017-21a1.426,1.426,0,0,1,1.668-1.132h0a1.426,1.426,0,0,1,1.132,1.668l-4.018,21A1.425,1.425,0,0,1,371.464,141.116Z" transform="translate(-310.186 -74.497)" fill="#595959"/>
        <path id="Path_2810" data-name="Path 2810" d="M367.5,126.952a1.706,1.706,0,0,0-.521,2.67,53.974,53.974,0,0,1,3.669,4.327c.255.511,1.3,4.421,1.932,6.86a1.7,1.7,0,0,0,2.359,1.119l4.3-1.954a1.708,1.708,0,0,0,1-1.667l-.6-9.285a1.71,1.71,0,0,0-1.075-1.477l-6.079-2.417a1.707,1.707,0,0,0-1.386.054Z" transform="translate(-309.841 -75.205)" fill="#de9c73"/>
        <path id="Path_2811" data-name="Path 2811" d="M375.011,141.5l.833,3.95c.309-.031,5.686-2.325,5.686-2.325l-.562-4.287Z" transform="translate(-310.617 -76.473)" fill="#de9c73"/>
        <path id="Path_2812" data-name="Path 2812" d="M387.552,162.5c-1.017.79-2.062,1.535-3.143,2.235a46.293,46.293,0,0,1-7.158,3.842c-.409-2.979-1.008-7.24-1.581-11.245-.827-5.868-1.581-11.191-1.581-11.191l1.608-.563,5.614-1.962.073-.027.064-.027Z" transform="translate(-310.533 -76.905)" fill="#fff8e3"/>
      </g>
      <path id="Path_2813" data-name="Path 2813" d="M372.563,423.453H87.984a5.954,5.954,0,0,1-5.936-5.936h0a5.954,5.954,0,0,1,5.936-5.936H372.563a5.954,5.954,0,0,1,5.936,5.936h0A5.954,5.954,0,0,1,372.563,423.453Z" transform="translate(-82.048 -101.469)" fill="#def5f5"/>
      <g id="Group_90" data-name="Group 90" transform="translate(150.557 41.387)">
        <circle id="Ellipse_11" data-name="Ellipse 11" cx="34.681" cy="34.681" r="34.681" fill="#fff"/>
        <path id="Path_2814" data-name="Path 2814" d="M320.148,147.9l8.59-17.478-18.6.359Z" transform="translate(-253.509 -117.088)" fill="#fff"/>
        <text id="_" data-name="?" transform="translate(27.573 45.657)" fill="#b0e7e7" font-size="30" font-family="SegoeUI, Segoe UI"><tspan x="0" y="0">?</tspan></text>
      </g>
      <rect id="Rectangle_26" data-name="Rectangle 26" width="5.35" height="83.226" transform="translate(13.974 226.886)" fill="#b0e7e7"/>
      <rect id="Rectangle_27" data-name="Rectangle 27" width="5.349" height="83.226" transform="translate(271.815 226.886)" fill="#b0e7e7"/>
      <g id="Group_91" data-name="Group 91" transform="translate(31.399 95.463)">
        <circle id="Ellipse_12" data-name="Ellipse 12" cx="7.166" cy="7.166" r="7.166" transform="translate(56.438 214.218) rotate(-52.274)" fill="#b0e7e7"/>
        <path id="Path_2815" data-name="Path 2815" d="M163.881,401.531V354.75h-7.763v46.781H136.386v7.639h45.447v-7.639Z" transform="translate(-118.427 -191.724)" fill="#b0e7e7"/>
        <rect id="Rectangle_28" data-name="Rectangle 28" width="74.264" height="88.338" rx="12.567" transform="translate(3.55 79.395)" fill="#b0e7e7"/>
        <path id="Path_2816" data-name="Path 2816" d="M288.027,253.881h-16.22a8.568,8.568,0,0,0-6.186,2.64l-3.771,3.936,6.3,3.561h11.965a7.912,7.912,0,0,0,7.913-7.912Z" transform="translate(-129.926 -182.479)" fill="#ffc5b1"/>
        <path id="Path_2817" data-name="Path 2817" d="M267.28,264.587l-9.625-9.625-27.713,27.713L207.353,259a16.441,16.441,0,0,0-7.567-4.513h0l-5.844,11.442L229.915,301.9l1.363-1.364.027.027Z" transform="translate(-123.702 -182.534)" fill="#fff"/>
        <rect id="Rectangle_29" data-name="Rectangle 29" width="10.402" height="18.923" transform="translate(47.824 52.777)" fill="#ffc5b1"/>
        <path id="Path_2836" data-name="Path 2836" d="M0,0H34.262V30.953a14.73,14.73,0,0,1-14.73,14.73h-4.8A14.73,14.73,0,0,1,0,30.953Z" transform="translate(43.552 13.467)" fill="#ffc5b1"/>
        <rect id="Rectangle_31" data-name="Rectangle 31" width="11.841" height="35.393" rx="5.003" transform="translate(38.119 9.681)" fill="#f97a5d"/>
        <rect id="Rectangle_32" data-name="Rectangle 32" width="11.841" height="24.284" rx="5.003" transform="translate(41.114 16.995)" fill="#f97a5d"/>
        <path id="Path_2818" data-name="Path 2818" d="M159.959,219.747a5.294,5.294,0,1,1,5.294,5.294A5.294,5.294,0,0,1,159.959,219.747Z" transform="translate(-120.588 -178.866)" fill="#ffc18f"/>
        <circle id="Ellipse_13" data-name="Ellipse 13" cx="8.851" cy="8.851" r="8.851" transform="matrix(0.229, -0.973, 0.973, 0.229, 33.463, 48.01)" fill="#424242"/>
        <path id="Path_2819" data-name="Path 2819" d="M196.58,189.039a13.765,13.765,0,0,0-13.765-13.764h-4.488a13.764,13.764,0,0,0-13.765,13.764v28.926" transform="translate(-121.009 -175.275)" fill="none" stroke="#424242" stroke-miterlimit="10" stroke-width="4"/>
        <path id="Rectangle_33" data-name="Rectangle 33" d="M7.19,0H42a0,0,0,0,1,0,0V6.945A10.344,10.344,0,0,1,31.659,17.289H0a0,0,0,0,1,0,0V7.19A7.19,7.19,0,0,1,7.19,0Z" transform="translate(45.471 4.167)" fill="#f97a5d"/>
        <path id="Path_2820" data-name="Path 2820" d="M158.831,220.145a5.692,5.692,0,1,1,5.692,5.692A5.692,5.692,0,0,1,158.831,220.145Z" transform="translate(-120.484 -178.866)" fill="#595959"/>
        <path id="Path_2821" data-name="Path 2821" d="M179.411,225.507a7.2,7.2,0,0,0,14.4,0Z" transform="translate(-122.37 -179.879)" fill="#fff"/>
        <rect id="Rectangle_34" data-name="Rectangle 34" width="4.496" height="11.305" rx="1.98" transform="translate(66.473 32.038)" fill="#2c373f"/>
        <path id="Path_2822" data-name="Path 2822" d="M172.275,247.823l-10.537,2.292-19.127,4.161V318.33H196.6V254.276Z" transform="translate(-118.998 -181.924)" fill="#fff"/>
        <path id="Path_2823" data-name="Path 2823" d="M168.833,243.608l-4.271,5.944,5.3,3.608,5.687-6.375Z" transform="translate(-121.009 -181.538)" fill="#fff"/>
        <path id="Path_2824" data-name="Path 2824" d="M180.18,243.853l4.131,6.033-4.767,3.3-5.4-6.408Z" transform="translate(-121.887 -181.56)" fill="#fff"/>
        <path id="Path_2825" data-name="Path 2825" d="M140.229,254.927l-.137.114a20.413,20.413,0,0,0-5.231,6.675L117.336,297.5a4.958,4.958,0,0,0,4.245,7.52h44.976v-10.1H135.613a1.426,1.426,0,0,1-1.211-2.178l6.021-10.951Z" transform="translate(-116.615 -182.575)" fill="#fff"/>
        <path id="Path_2826" data-name="Path 2826" d="M182.339,301.2H171.863v8.061H190.4A8.061,8.061,0,0,0,182.339,301.2Z" transform="translate(-121.679 -186.815)" fill="#ffc5b1"/>
        <rect id="Rectangle_35" data-name="Rectangle 35" width="23.921" height="10.095" transform="translate(26.021 112.346)" fill="#fff"/>
        <path id="Path_2827" data-name="Path 2827" d="M244.5,341.851a23.982,23.982,0,0,0-18.922-9.248h-5.056a14.994,14.994,0,0,0-12.812-7.16H144.125v9.85a13.66,13.66,0,0,0,13.66,13.66h39.621l-33.664,33.674L175.3,394.188l43.049-43.058a15.16,15.16,0,0,0,1.793-2.177h5.436A7.635,7.635,0,0,1,231.6,351.9l34.685,44.546,12.9-10.045Z" transform="translate(-119.136 -189.038)" fill="#2c373f"/>
        <path id="Rectangle_36" data-name="Rectangle 36" d="M0,0H20.371A11.217,11.217,0,0,1,31.588,11.217v3.209a0,0,0,0,1,0,0H4.983A4.983,4.983,0,0,1,0,9.443V0A0,0,0,0,1,0,0Z" transform="matrix(0.779, -0.627, 0.627, 0.779, 147.144, 207.151)" fill="#2c373f"/>
        <path id="Rectangle_37" data-name="Rectangle 37" d="M0,0H20.371A11.217,11.217,0,0,1,31.588,11.217v3.209a0,0,0,0,1,0,0H4.983A4.983,4.983,0,0,1,0,9.443V0A0,0,0,0,1,0,0Z" transform="translate(44.488 193.239) rotate(45)" fill="#2c373f"/>
        <circle id="Ellipse_14" data-name="Ellipse 14" cx="7.166" cy="7.166" r="7.166" transform="translate(4.28 218.14) rotate(-75.907)" fill="#b0e7e7"/>
        <path id="Path_2828" data-name="Path 2828" d="M168.809,227.543s2.145,8.836,13.273,8.415" transform="translate(-121.399 -180.065)" fill="none" stroke="#424242" stroke-miterlimit="10" stroke-width="3"/>
        <circle id="Ellipse_15" data-name="Ellipse 15" cx="2.455" cy="2.455" r="2.455" transform="translate(58.228 52.301)" fill="#424242"/>
        <rect id="Rectangle_40" data-name="Rectangle 40" width="4.496" height="11.305" rx="1.98" transform="translate(55.573 32.038)" fill="#2c373f"/>
      </g>
      <g id="Group_92" data-name="Group 92" transform="translate(173.636 136.905)">
        <path id="Path_2829" data-name="Path 2829" d="M358.972,281.414H274.521a1.318,1.318,0,0,1-1.263-1.694l17.268-57.881a1.316,1.316,0,0,1,1.262-.941H376.24a1.317,1.317,0,0,1,1.262,1.694l-17.267,57.881A1.318,1.318,0,0,1,358.972,281.414Z" transform="translate(-273.203 -220.898)" fill="#fff"/>
        <path id="Path_2830" data-name="Path 2830" d="M362.028,281.414H277.577a1.318,1.318,0,0,1-1.263-1.694l17.268-57.881a1.316,1.316,0,0,1,1.263-.941H379.3a1.317,1.317,0,0,1,1.262,1.694l-17.267,57.881A1.317,1.317,0,0,1,362.028,281.414Z" transform="translate(-273.483 -220.898)" fill="#b0e7e7"/>
        <rect id="Rectangle_38" data-name="Rectangle 38" width="5.301" height="14.812" transform="translate(43.56 45.666)" fill="#b0e7e7"/>
        <path id="Path_2831" data-name="Path 2831" d="M334.976,269.116H320.67a1.618,1.618,0,0,0-1.6,1.868l4.7,30.228a1.619,1.619,0,0,1-1.6,1.868H300a1.619,1.619,0,0,0-1.619,1.619h0A1.619,1.619,0,0,0,300,306.317h40.262a1.619,1.619,0,0,0,1.6-1.868l-5.281-33.963A1.618,1.618,0,0,0,334.976,269.116Z" transform="translate(-275.51 -225.317)" fill="#21bcbd"/>
      </g>
      <g id="Group_93" data-name="Group 93" transform="translate(116.709 113.825)">
        <circle id="Ellipse_16" data-name="Ellipse 16" cx="24.982" cy="24.982" r="24.982" transform="translate(3.879)" fill="#b0e7e7"/>
        <path id="Path_2832" data-name="Path 2832" d="M226.177,239.4l-4.35-16.41-11.295,14.57Z" transform="translate(-210.532 -198.01)" fill="#b0e7e7"/>
        <path id="Path_2833" data-name="Path 2833" d="M230.819,221.079a2.7,2.7,0,1,1,.508,3.788A2.7,2.7,0,0,1,230.819,221.079Z" transform="translate(-212.341 -197.737)" fill="#fff"/>
        <path id="Path_2834" data-name="Path 2834" d="M239.883,221.079a2.7,2.7,0,1,1,.509,3.788A2.7,2.7,0,0,1,239.883,221.079Z" transform="translate(-213.171 -197.737)" fill="#fff"/>
        <path id="Path_2835" data-name="Path 2835" d="M248.948,221.079a2.7,2.7,0,1,1,.509,3.788A2.7,2.7,0,0,1,248.948,221.079Z" transform="translate(-214.002 -197.737)" fill="#fff"/>
      </g>
      <rect id="Rectangle_39" data-name="Rectangle 39" width="263.191" height="8.982" transform="translate(13.974 217.904)" fill="#424242"/>
    </g>
  </g>
</svg>
